<?xml version="1.0" encoding="UTF-8" standalone="no"?>
<svg
   xmlns:sketch="http://www.bohemiancoding.com/sketch/ns"
   xmlns:dc="http://purl.org/dc/elements/1.1/"
   xmlns:cc="http://creativecommons.org/ns#"
   xmlns:rdf="http://www.w3.org/1999/02/22-rdf-syntax-ns#"
   xmlns:svg="http://www.w3.org/2000/svg"
   xmlns="http://www.w3.org/2000/svg"
   xmlns:sodipodi="http://sodipodi.sourceforge.net/DTD/sodipodi-0.dtd"
   xmlns:inkscape="http://www.inkscape.org/namespaces/inkscape"
   width="223px"
   height="55px"
   viewBox="0 0 223 55"
   version="1.1"
   id="svg2"
   inkscape:version="0.91 r13725"
   sodipodi:docname="logo.svg">
  <metadata
     id="metadata19">
    <rdf:RDF>
      <cc:Work
         rdf:about="">
        <dc:format>image/svg+xml</dc:format>
        <dc:type
           rdf:resource="http://purl.org/dc/dcmitype/StillImage" />
      </cc:Work>
    </rdf:RDF>
  </metadata>
  <sodipodi:namedview
     pagecolor="#ffffff"
     bordercolor="#666666"
     borderopacity="1"
     objecttolerance="10"
     gridtolerance="10"
     guidetolerance="10"
     inkscape:pageopacity="0"
     inkscape:pageshadow="2"
     inkscape:window-width="1920"
     inkscape:window-height="1008"
     id="namedview17"
     showgrid="false"
     inkscape:zoom="2.3144882"
     inkscape:cx="80.422052"
     inkscape:cy="68.29385"
     inkscape:window-x="0"
     inkscape:window-y="40"
     inkscape:window-maximized="1"
     inkscape:current-layer="Welcome" />
  <!-- Generator: Sketch 3.2.2 (9983) - http://www.bohemiancoding.com/sketch -->
  <title
     id="title4">Fill 1 + Fill 2 + Oval 1</title>
  <desc
     id="desc6">Created with Sketch.</desc>
  <defs
     id="defs8" />
  <g
     id="Welcome"
     stroke="none"
     stroke-width="1"
     fill="none"
     fill-rule="evenodd"
     sketch:type="MSPage">
    <g
       id="Desktop-HD-2"
       sketch:type="MSArtboardGroup"
       transform="translate(-578.000000, -220.000000)"
       fill="#07576A"
       style="fill:#ffffff;fill-opacity:0.79496402">
      <g
         id="Fill-1-+-Fill-2-+-Oval-1"
         sketch:type="MSLayerGroup"
         transform="translate(578.000000, 220.000000)"
         style="fill:#ffffff;fill-opacity:0.79496402">
        <g
           id="Fill-1-+-Fill-2"
           transform="translate(0.020924, 0.604181)"
           sketch:type="MSShapeGroup"
           style="fill:#ffffff;fill-opacity:0.79496402">
          <path
             d="M0.434828212,14.2307406 C0.476493818,14.0524301 0.514870034,13.8735808 0.560373262,13.6968864 C0.849291348,12.5580691 2.00989778,11.8857682 3.18530646,12.1077137 C4.19460095,12.2984144 5.06245167,13.2314473 4.97966869,14.4472991 C4.96870405,14.6035228 5.06519283,14.6353063 5.15948867,14.6886378 C7.03608565,15.7563464 8.91377909,16.8219001 10.7903761,17.88907 C12.0134809,18.5839963 13.2354893,19.2805388 14.4596906,19.9770813 C16.9415353,16.7173918 20.2451793,14.9703793 24.3799425,14.9951596 C28.5053858,15.0199399 31.7821664,16.8008907 34.2239902,20.0837444 C34.9734229,19.6597854 35.7184697,19.2395974 36.4624201,18.8177933 C38.7776024,17.5071299 41.09114,16.1937729 43.4090635,14.8874191 C43.5773706,14.7931462 43.6190362,14.7096472 43.6042339,14.5022467 C43.5834011,14.1968024 43.4326374,14.0664363 43.1908673,13.9296059 C37.3121792,10.6079657 31.4378769,7.27986099 25.5641229,3.94960152 C25.4150039,3.86502521 25.2987788,3.83862878 25.1216999,3.91135363 C24.149137,4.31430318 23.0844711,3.96791741 22.5822909,3.06235834 C21.9633373,1.94778266 22.5609098,0.550388112 23.7845629,0.24548244 C23.9567077,0.203463637 24.1310453,0.167370563 24.3042865,0.129122678 L24.3536274,0.129122678 C24.423801,0.145283756 24.4934265,0.16467705 24.5646966,0.17706721 C25.6030473,0.345681124 26.2707935,1.02875602 26.3102662,2.05121356 C26.321779,2.34642258 26.4385524,2.45577921 26.6594897,2.58021951 C30.4187143,4.70324645 34.1735529,6.83219913 37.9300362,8.9595357 C39.9908391,10.1274429 42.0516419,11.2948115 44.1124447,12.46218 C44.2160605,12.5203599 44.3037775,12.5995492 44.4353531,12.4853442 C44.7089207,12.2456216 45.045535,12.137881 45.4007891,12.0603079 C46.5312428,11.8125047 47.7110373,12.5182051 47.9917319,13.6273937 C48.0388799,13.81163 48.0810937,13.9969437 48.1249522,14.1827961 L48.1249522,14.2786852 C48.1117947,14.3239362 48.0904136,14.3681098 48.0849313,14.4144382 C47.9802191,15.3086845 47.504354,15.9357344 46.6606255,16.3122875 L46.6606255,16.5708647 L46.6606255,19.7346651 C46.6606255,25.4960894 46.6611737,31.256975 46.6567878,37.018938 C46.6567878,37.1843197 46.6858441,37.2936763 46.8453795,37.3847171 C47.3958041,37.698242 47.7006209,38.1890001 47.7757287,38.7982727 C47.863994,39.5120537 47.6342849,40.1224037 47.0520629,40.5781461 C46.4632621,41.0387368 45.8042876,41.101765 45.0959723,40.8938258 C44.9890671,40.8620424 44.8355623,40.8744325 44.7407182,40.9283028 C38.7447085,44.3162034 32.7525364,47.7116459 26.7587197,51.1027788 C26.6342711,51.1733488 26.6030219,51.2444576 26.6085042,51.3845203 C26.6551039,52.4683899 25.9391133,53.4062711 24.9676468,53.6233683 C24.7790551,53.6659258 24.5904635,53.7100994 24.4018718,53.7531956 L24.3042865,53.7531956 C24.1156948,53.7100994 23.9265549,53.669158 23.7385115,53.6228296 C22.6102507,53.3464751 21.9035801,52.190958 22.1420609,51.0742276 C22.2922763,50.3744529 22.6831655,49.8783078 23.2960885,49.5227641 C23.3569422,49.486671 23.4199889,49.3934754 23.4210853,49.327215 C23.4260194,45.7777036 23.4249229,42.2281922 23.4238265,38.6797581 C23.4238265,38.6565939 23.4139583,38.632891 23.4068313,38.5994915 C19.2062803,38.1620649 15.9262103,36.2308161 13.8418335,32.6004993 C11.7640355,28.9825726 11.7848683,25.2326638 13.5435955,21.4558199 C13.3752884,21.3599308 13.2080777,21.2651192 13.040867,21.1697688 C10.1237264,19.5116422 7.2065857,17.8518995 4.28944502,16.1932342 C3.9807906,16.0176172 3.55865222,16.2600333 3.55865222,16.6112674 C3.55865222,23.3978428 3.55974868,30.1854955 3.5548146,36.9726096 C3.5548146,37.1708522 3.59209435,37.3006795 3.78452366,37.4148844 C4.81300626,38.0268506 5.00379088,39.4641091 4.17212345,40.397142 C3.60744484,41.0301176 2.41613744,41.1858026 1.68369994,40.7440665 C0.606972954,40.0933138 0.389324984,38.6614423 1.23963229,37.7154805 C1.36079149,37.5802661 1.53622562,37.4929963 1.6727353,37.368556 C1.73358902,37.3125309 1.76648292,37.2220289 1.79937682,37.1412235 C1.81527554,37.1002821 1.80211798,37.0464119 1.80211798,36.999006 C1.80211798,30.2032727 1.80156974,23.4086168 1.80485913,16.6139609 C1.80485913,16.4162571 1.76867584,16.2939716 1.56966775,16.1813828 C0.929333171,15.8199133 0.587236614,15.2488886 0.483072598,14.5345689 C0.472656196,14.4645376 0.451275162,14.396661 0.434828212,14.3266297 L0.434828212,14.2307406 L0.434828212,14.2307406 Z M32.7125155,20.932201 C30.2838493,17.4818108 25.5262949,15.6125128 20.8734528,17.2280819 C16.1400206,18.8722022 13.035933,23.6623458 14.2234027,29.0089691 C15.336313,34.0183645 19.8115281,36.7215742 23.4161512,36.883185 L23.4161512,29.5541361 C21.8827473,29.0790004 21.1097406,27.4607378 21.451289,26.0654981 C21.9326364,24.0992336 24.3750084,23.185594 26.0865877,24.4273035 C26.241189,24.5388149 26.3459012,24.5522825 26.5153048,24.4558547 C28.5092234,23.3175761 30.5091725,22.1879167 32.5074769,21.0561026 C32.5765541,21.0167773 32.6434383,20.9736811 32.7125155,20.932201 L32.7125155,20.932201 Z M25.1929701,49.4209493 C25.2587579,49.4532714 25.337155,49.472126 25.3875923,49.5189932 C25.6260731,49.7403999 25.8300152,49.6428948 26.0750748,49.5033708 C31.9170314,46.1860402 37.7633738,42.8767901 43.6086198,39.5659239 C43.9216601,39.3886908 43.9200154,38.987896 43.6047822,38.8079694 C41.3345549,37.5172379 39.0643276,36.2275839 36.7946485,34.9368525 C35.9448894,34.4547136 35.0956786,33.97042 34.2371478,33.4828942 C32.0113272,36.5432636 28.9889261,38.2294028 25.1929701,38.5935657 L25.1929701,49.4209493 L25.1929701,49.4209493 Z M35.1148667,21.5764893 C36.7332465,25.0570468 36.7370842,28.5155175 35.1318618,31.9831461 C35.2086143,32.0294745 35.2749503,32.0731095 35.3440275,32.1124347 C38.3878097,33.8427475 41.4315919,35.5735989 44.4759223,37.303373 C44.7812873,37.4762965 44.9040912,37.40842 44.9040912,37.0647277 L44.9040912,16.5126849 C44.9040912,16.164683 44.7873179,16.0968064 44.4841458,16.2681139 C41.9370615,17.7107594 39.3899772,19.1539437 36.8428929,20.5965893 C36.2743766,20.9187334 35.7053122,21.241955 35.1148667,21.5764893 L35.1148667,21.5764893 Z M33.6066814,22.4303329 C33.1982488,22.6608976 32.8046184,22.8833818 32.4104399,23.1069434 C30.7366886,24.0539825 29.0629374,25.0015604 27.3891861,25.9512931 C27.2976314,26.0024699 27.1786651,26.0304824 27.2258131,26.1931706 C27.355744,26.6440647 27.3053066,27.0922652 27.1841474,27.5388497 C26.9270268,28.4885824 26.3212308,29.1317933 25.4012981,29.4867983 C25.2253157,29.5552135 25.1776196,29.6290158 25.1781678,29.807865 C25.1852948,32.0844222 25.1831019,34.3615181 25.1831019,36.6391527 L25.1831019,36.899346 C32.4055058,36.2992313 36.7398253,28.7266889 33.6066814,22.4303329 L33.6066814,22.4303329 Z M23.065283,26.7733533 C23.0576077,27.4634313 23.6107735,28.0075209 24.3284087,28.0150628 C25.02247,28.0209885 25.5871486,27.4774376 25.5920827,26.7975949 C25.5970168,26.089201 25.0570086,25.5370308 24.3536274,25.5332599 C23.6217381,25.5284116 23.0729582,26.0568788 23.065283,26.7733533 L23.065283,26.7733533 Z M2.73630473,14.8238522 C3.04605562,14.8216974 3.28563285,14.5830521 3.28563285,14.2781465 C3.28453639,13.9635441 3.03180159,13.7238215 2.71053784,13.731902 C2.40243165,13.7405213 2.16833673,13.9840148 2.17381904,14.2910753 C2.17930136,14.5965197 2.42381268,14.8276231 2.73630473,14.8238522 L2.73630473,14.8238522 Z M24.9078896,51.5105767 C24.9128237,51.2035162 24.679277,50.9600226 24.371719,50.9514034 C24.0493588,50.9433228 23.7993652,51.1819681 23.7993652,51.4992639 C23.7993652,51.8068631 24.035653,52.0417374 24.3475968,52.0449696 C24.6606371,52.0476632 24.9035037,51.816021 24.9078896,51.5105767 L24.9078896,51.5105767 Z M45.8322474,14.7780625 C46.143643,14.7775238 46.3881543,14.536185 46.3876061,14.2302019 C46.3876061,13.922064 46.1458359,13.6861123 45.8306027,13.6871897 C45.5137248,13.6871897 45.2768887,13.9204479 45.277437,14.2323567 C45.277437,14.5410333 45.5186589,14.7780625 45.8322474,14.7780625 L45.8322474,14.7780625 Z M24.3185406,2.40190895 C24.5011017,2.3916736 24.6123927,2.30224897 24.6134892,2.1217836 C24.6140374,1.94239563 24.5071322,1.83950343 24.3251193,1.84004214 C24.1551675,1.84111954 24.0510035,1.93754731 24.0444247,2.10508382 C24.0367495,2.28554919 24.1403653,2.38197695 24.3185406,2.40190895 L24.3185406,2.40190895 Z M2.69573558,39.3358979 C2.8777485,39.3240464 2.98903952,39.2367766 2.98958776,39.0541564 C2.99013599,38.8736911 2.88323081,38.772415 2.7012179,38.7734924 C2.53016962,38.7734924 2.42710207,38.8709976 2.42107152,39.0396115 C2.41449274,39.2189994 2.5159156,39.3165046 2.69573558,39.3358979 L2.69573558,39.3358979 Z M45.8114146,38.7691828 C45.6304982,38.783189 45.5208518,38.872075 45.5208518,39.0541564 C45.5214001,39.2227704 45.6184371,39.3240464 45.7900336,39.3315883 C45.9720465,39.3385914 46.084434,39.2448572 46.0910128,39.0633144 C46.0981398,38.8806942 45.9906864,38.7880374 45.8114146,38.7691828 L45.8114146,38.7691828 Z"
             id="Fill-1"
             style="fill:#ffffff;fill-opacity:0.79496402" />
          <path
             d="M65.0209984,33.1307944 C63.921714,33.1307944 62.9757163,32.9503041 62.1830053,32.5903945 C61.3897468,32.2294138 60.7355412,31.7329314 60.220936,31.0993407 C59.7063308,30.4668211 59.3269463,29.7180807 59.0838774,28.8547262 C58.8402611,27.989765 58.7187267,27.0535717 58.7187267,26.0461463 C58.7187267,25.0392565 58.8402611,24.1041344 59.0838774,23.2391732 C59.3269463,22.3747476 59.7063308,21.6265428 60.220936,20.9934876 C60.7355412,20.360968 61.3897468,19.86395 62.1830053,19.5024337 C62.9757163,19.1425242 63.921714,18.9620338 65.0209984,18.9620338 C66.1197353,18.9620338 67.0662804,19.1425242 67.8589915,19.5024337 C68.6522499,19.86395 69.3059081,20.360968 69.8205133,20.9934876 C70.335666,21.6265428 70.714503,22.3747476 70.9581193,23.2391732 C71.2011882,24.1041344 71.3232701,25.0392565 71.3232701,26.0461463 C71.3232701,27.0535717 71.2011882,27.989765 70.9581193,28.8547262 C70.714503,29.7180807 70.335666,30.4668211 69.8205133,31.0993407 C69.3059081,31.7329314 68.6522499,32.2294138 67.8589915,32.5903945 C67.0662804,32.9503041 66.1197353,33.1307944 65.0209984,33.1307944 L65.0209984,33.1307944 Z M65.0209984,31.6611638 C66.5374414,31.6611638 67.6673831,31.1743218 68.4124658,30.200638 C69.1559061,29.2280252 69.5287212,27.8430162 69.5287212,26.0461463 C69.5287212,24.2492765 69.1559061,22.8653386 68.4124658,21.8921903 C67.6673831,20.9185064 66.5374414,20.4316645 65.0209984,20.4316645 C63.5045553,20.4316645 62.3735187,20.9185064 61.6295309,21.8921903 C60.8849957,22.8653386 60.5132756,24.2492765 60.5132756,26.0461463 C60.5132756,27.8430162 60.8849957,29.2280252 61.6295309,30.200638 C62.3735187,31.1743218 63.5045553,31.6611638 65.0209984,31.6611638 Z M86.2988296,20.5543122 C84.7681528,20.5543122 83.5681372,21.0309781 82.6987829,21.9837744 C81.828881,22.9360351 81.3947513,24.2905161 81.3947513,26.0461463 C81.3947513,27.7749976 81.8184794,29.122516 82.6675781,30.089773 C83.5161292,31.0559587 84.7336633,31.5390516 86.3190854,31.5390516 C86.8479244,31.5390516 87.3734786,31.4876359 87.8946533,31.3853402 C88.4169229,31.2835801 88.9074402,31.1234418 89.3667527,30.9059964 L89.8255178,32.3954435 C89.3109126,32.6412746 88.7645551,32.8244428 88.1875403,32.9470906 C87.6099781,33.0692028 86.973291,33.1307944 86.2780265,33.1307944 C85.122902,33.1307944 84.1287285,32.9604801 83.2933161,32.620387 C82.4589987,32.2802939 81.7664715,31.8004145 81.2173767,31.1812844 C80.6671871,30.5621542 80.26043,29.8166273 79.996558,28.9457747 C79.731591,28.0743866 79.599655,27.1082008 79.599655,26.0461463 C79.599655,25.0119419 79.7458248,24.0596813 80.0381643,23.1882931 C80.3299565,22.3174405 80.7580642,21.5681646 81.3213927,20.9420719 C81.8852686,20.3165148 82.5838179,19.8296729 83.4186827,19.4826173 C84.2535476,19.1350261 85.2061147,18.9620338 86.2780265,18.9620338 C87.0148973,18.9620338 87.6482997,19.0161274 88.1765913,19.1253856 C88.7059777,19.2351795 89.2129186,19.3974601 89.7001512,19.615441 L89.2413861,21.0850717 C88.461814,20.7315891 87.4813268,20.5543122 86.2988296,20.5543122 Z M104.537753,20.7797913 L104.537753,32.926203 L102.743204,32.926203 L102.743204,20.7797913 L98.4862143,20.7996077 L98.4862143,19.1660897 L108.79529,19.1660897 L108.79529,20.7996077 L104.537753,20.7797913 Z M124.905718,29.2317743 L119.124621,29.2317743 L117.768582,32.926203 L115.911076,32.926203 L121.107494,19.1660897 L122.944196,19.1660897 L128.141162,32.926203 L126.283108,32.926203 L124.905718,29.2317743 Z M119.730104,27.6389603 L124.321587,27.6389603 L122.903137,23.8620524 L122.046922,21.1664798 L122.004768,21.1664798 L121.149648,23.8620524 L119.730104,27.6389603 Z M145.46146,25.6985551 C145.781719,25.7537198 146.101432,25.8629781 146.421691,26.0263299 C146.741403,26.1891461 147.029911,26.4044491 147.287213,26.6695611 C147.545064,26.934673 147.753095,27.2544141 147.913499,27.6287843 C148.072808,28.0036901 148.153283,28.4359029 148.153283,28.9254227 C148.153283,29.5108113 148.052552,30.0474622 147.850542,30.5375176 C147.649079,31.027573 147.339769,31.4496098 146.92261,31.8041635 C146.504904,32.1576461 145.97935,32.4340052 145.346495,32.6310986 C144.71364,32.8281919 143.972389,32.926203 143.123838,32.926203 L137.886361,32.926203 L137.886361,19.1660897 L143.103035,19.1660897 C143.841001,19.1660897 144.487542,19.2582094 145.043754,19.4419132 C145.600513,19.6250815 146.066942,19.880553 146.442494,20.2072566 C146.817499,20.5339602 147.099985,20.9254689 147.287213,21.3817828 C147.476085,21.8375611 147.568057,22.33083 147.568057,22.8610539 C147.568057,23.2568473 147.499625,23.6097943 147.36112,23.923644 C147.221519,24.2369581 147.047429,24.5122461 146.83885,24.7500435 C146.630818,24.9883764 146.403625,25.1860053 146.160009,25.3423946 C145.917488,25.4982483 145.683725,25.6182182 145.46146,25.6985551 Z M143.123838,25.046219 C143.499938,25.046219 143.850855,24.9985525 144.177684,24.9026837 C144.505061,24.8078861 144.790283,24.6648863 145.0339,24.4742199 C145.276968,24.2840892 145.468577,24.0457562 145.607082,23.7602922 C145.746135,23.4742927 145.815662,23.1475891 145.815662,22.7796458 C145.815662,22.1133847 145.572045,21.6056551 145.08536,21.2591351 C144.599222,20.9120795 143.938447,20.7380161 143.103035,20.7380161 L139.638756,20.7380161 L139.638756,25.046219 L143.123838,25.046219 L143.123838,25.046219 Z M143.103035,31.3548122 C144.146479,31.3548122 144.957256,31.1443294 145.534818,30.721757 C146.111833,30.3002558 146.400888,29.7014777 146.400888,28.9254227 C146.400888,28.4894609 146.320413,28.1263378 146.160009,27.8328402 C146.0007,27.5409492 145.774055,27.3020807 145.482263,27.1183769 C145.190471,26.934673 144.842839,26.8023848 144.438819,26.71937 C144.035346,26.6379619 143.583151,26.5972578 143.082232,26.5972578 L139.638756,26.5972578 L139.638756,31.3548122 L143.103035,31.3548122 Z M168.083287,23.2900533 C168.083287,23.7672548 168.010475,24.219284 167.864306,24.6477478 C167.718136,25.0767471 167.505724,25.4682558 167.227619,25.822274 C166.949513,26.1757566 166.61283,26.4821082 166.215927,26.7407932 C165.818476,26.9994782 165.370113,27.1965715 164.869741,27.3326087 L168.208653,32.926203 L166.247131,32.926203 L163.032491,27.5168481 L160.195045,27.5168481 L160.195045,32.926203 L158.399949,32.926203 L158.399949,19.1660897 L163.429942,19.1660897 C164.166812,19.1660897 164.824303,19.2758835 165.402412,19.4927933 C165.978332,19.7107742 166.466112,20.0032007 166.863015,20.3706084 C167.259371,20.7380161 167.561565,21.1739779 167.770691,21.6774228 C167.979271,22.1808677 168.083287,22.7191253 168.083287,23.2900533 Z M166.289285,23.2900533 C166.289285,22.5279234 166.045669,21.9227183 165.558436,21.473367 C165.070656,21.0240156 164.361705,20.7996077 163.429942,20.7996077 L160.195045,20.7996077 L160.195045,25.8838657 L163.305122,25.8838657 C164.236339,25.8838657 164.967188,25.6482106 165.495479,25.1790428 C166.024318,24.709875 166.289285,24.0794977 166.289285,23.2900533 Z M186.114725,29.2317743 L180.333081,29.2317743 L178.977041,32.926203 L177.119535,32.926203 L182.315406,19.1660897 L184.152656,19.1660897 L189.349074,32.926203 L187.491568,32.926203 L186.114725,29.2317743 Z M180.938563,27.6389603 L185.529499,27.6389603 L184.110502,23.8620524 L183.254834,21.1664798 L183.21268,21.1664798 L182.357012,23.8620524 L180.938563,27.6389603 Z M199.13588,19.1660897 L200.930429,19.1660897 L200.930429,32.926203 L199.13588,32.926203 L199.13588,19.1660897 Z M219.48359,28.0476076 C219.761695,28.4835695 220.022283,28.9286362 220.265899,29.3838789 C220.508968,29.8407284 220.706598,30.224739 220.860432,30.5375176 L220.902586,30.5375176 C220.83306,30.0619228 220.788169,29.5820434 220.766271,29.098415 C220.745467,28.6163932 220.735613,28.0883117 220.735613,27.5168481 L220.735613,19.1660897 L222.530162,19.1660897 L222.530162,32.926203 L220.610247,32.926203 L215.017473,24.0457562 C214.739367,23.6097943 214.477685,23.164192 214.235164,22.7078781 C213.991548,22.2526354 213.792822,21.8680892 213.640083,21.5547751 L213.598477,21.5547751 C213.668003,22.0319766 213.713442,22.5113204 213.734245,22.9944133 C213.755048,23.4775061 213.764902,24.0050521 213.764902,24.5765157 L213.764902,32.926203 L211.970353,32.926203 L211.970353,19.1660897 L213.890269,19.1660897 L219.48359,28.0476076 Z"
             id="Fill-2"
             style="fill:#ffffff;fill-opacity:0.79496402" />
        </g>
        <path
           d="M2.79003559,16.5 C3.45041878,16.5 3.98576512,15.9723356 3.98576512,15.3214286 C3.98576512,14.6705215 3.45041878,14.1428571 2.79003559,14.1428571 C2.1296524,14.1428571 1.59430605,14.6705215 1.59430605,15.3214286 C1.59430605,15.9723356 2.1296524,16.5 2.79003559,16.5 Z M1.99288256,40.8571429 C2.65326575,40.8571429 3.1886121,40.3294785 3.1886121,39.6785714 C3.1886121,39.0276644 2.65326575,38.5 1.99288256,38.5 C1.33249937,38.5 0.797153025,39.0276644 0.797153025,39.6785714 C0.797153025,40.3294785 1.33249937,40.8571429 1.99288256,40.8571429 Z M45.8362989,40.8571429 C46.4966821,40.8571429 47.0320285,40.3294785 47.0320285,39.6785714 C47.0320285,39.0276644 46.4966821,38.5 45.8362989,38.5 C45.1759157,38.5 44.6405694,39.0276644 44.6405694,39.6785714 C44.6405694,40.3294785 45.1759157,40.8571429 45.8362989,40.8571429 Z M24.3131673,4.71428571 C24.9735504,4.71428571 25.5088968,4.18662131 25.5088968,3.53571429 C25.5088968,2.88480726 24.9735504,2.35714286 24.3131673,2.35714286 C23.6527841,2.35714286 23.1174377,2.88480726 23.1174377,3.53571429 C23.1174377,4.18662131 23.6527841,4.71428571 24.3131673,4.71428571 Z M45.8362989,16.5 C46.4966821,16.5 47.0320285,15.9723356 47.0320285,15.3214286 C47.0320285,14.6705215 46.4966821,14.1428571 45.8362989,14.1428571 C45.1759157,14.1428571 44.6405694,14.6705215 44.6405694,15.3214286 C44.6405694,15.9723356 45.1759157,16.5 45.8362989,16.5 Z M24.3131673,52.6428571 C24.9735504,52.6428571 25.5088968,52.1151927 25.5088968,51.4642857 C25.5088968,50.8133787 24.9735504,50.2857143 24.3131673,50.2857143 C23.6527841,50.2857143 23.1174377,50.8133787 23.1174377,51.4642857 C23.1174377,52.1151927 23.6527841,52.6428571 24.3131673,52.6428571 Z"
           id="Oval-1"
           sketch:type="MSShapeGroup"
           style="fill:#ffffff;fill-opacity:0.79496402" />
      </g>
    </g>
  </g>
</svg>
